<svg width="1000" height="1000" viewBox="0 0 1000 1000" fill="none" xmlns="http://www.w3.org/2000/svg">
<g clip-path="url(#clip0_4_188)">
<rect x="40" y="225" width="920" height="620" rx="8" fill="#0C0A09"/>
<rect x="40" y="225" width="920" height="54" fill="#141311"/>
<rect x="172.572" y="227" width="2" height="616" fill="#292524"/>
<rect x="303.143" y="227" width="2" height="616" fill="#292524"/>
<rect x="433.714" y="227" width="2" height="616" fill="#292524"/>
<rect x="564.286" y="227" width="2" height="616" fill="#292524"/>
<rect x="694.857" y="227" width="2" height="616" fill="#292524"/>
<rect x="825.428" y="227" width="2" height="616" fill="#292524"/>
<rect x="42" y="277" width="916" height="2" fill="#292524"/>
<rect x="42" y="390.2" width="916" height="2" fill="#292524"/>
<rect x="42" y="503.4" width="916" height="2" fill="#292524"/>
<rect x="42" y="616.6" width="916" height="2" fill="#292524"/>
<rect x="42" y="729.8" width="916" height="2" fill="#292524"/>
</g>
<rect x="41" y="226" width="918" height="618" rx="7" stroke="#57534E" stroke-width="2"/>
<rect x="182" y="400" width="114" height="40" rx="6" fill="#F59E0B"/>
<rect x="313" y="668" width="114" height="40" rx="6" fill="#3B82F6"/>
<rect x="574" y="526" width="114" height="40" rx="6" fill="#F43F5E"/>
<rect x="704" y="308" width="114" height="40" rx="6" fill="#22C55E"/>
<defs>
<clipPath id="clip0_4_188">
<rect x="40" y="225" width="920" height="620" rx="8" fill="white"/>
</clipPath>
</defs>
</svg>
