<svg width="1000" height="1000" viewBox="0 0 1000 1000" fill="none" xmlns="http://www.w3.org/2000/svg">
<rect x="118.5" y="6" width="763" height="988" rx="7" fill="#0C0A09"/>
<rect x="118.5" y="6" width="763" height="988" rx="7" stroke="#57534E" stroke-width="2"/>
<rect x="207.5" y="95" width="585" height="40" rx="6" fill="#292524"/>
<rect x="207.5" y="160" width="437" height="40" rx="6" fill="#292524"/>
<rect x="207.5" y="225" width="585" height="40" rx="6" fill="#292524"/>
<rect x="207.5" y="290" width="585" height="40" rx="6" fill="#292524"/>
<rect x="207.5" y="355" width="315" height="40" rx="6" fill="#292524"/>
<rect x="207.5" y="420" width="585" height="40" rx="6" fill="#292524"/>
<rect x="207.5" y="485" width="585" height="40" rx="6" fill="#292524"/>
<rect x="207.5" y="550" width="502" height="40" rx="6" fill="#292524"/>
<rect x="207.5" y="615" width="585" height="40" rx="6" fill="#292524"/>
<rect x="207.5" y="680" width="243" height="40" rx="6" fill="#292524"/>
<rect x="208" y="95" width="271" height="40" rx="6" fill="#22C55E"/>
<rect x="364" y="290" width="199" height="40" rx="6" fill="#F43F5E"/>
<rect x="208" y="485" width="228" height="40" rx="6" fill="#3B82F6"/>
<rect x="539" y="615" width="254" height="40" rx="6" fill="#F59E0B"/>
</svg>
