<svg width="1000" height="1000" viewBox="0 0 1000 1000" fill="none" xmlns="http://www.w3.org/2000/svg">
<g clip-path="url(#clip0_4_44)">
<rect x="40" y="225" width="920" height="620" rx="8" fill="white"/>
<rect x="40" y="225" width="920" height="54" fill="#F5F5F4"/>
<rect x="172.571" y="227" width="2" height="616" fill="#D6D3D1"/>
<rect x="303.143" y="227" width="2" height="616" fill="#D6D3D1"/>
<rect x="433.714" y="227" width="2" height="616" fill="#D6D3D1"/>
<rect x="564.286" y="227" width="2" height="616" fill="#D6D3D1"/>
<rect x="694.857" y="227" width="2" height="616" fill="#D6D3D1"/>
<rect x="825.429" y="227" width="2" height="616" fill="#D6D3D1"/>
<rect x="42" y="277" width="916" height="2" fill="#D9D9D9"/>
<rect x="42" y="390.2" width="916" height="2" fill="#D9D9D9"/>
<rect x="42" y="503.4" width="916" height="2" fill="#D9D9D9"/>
<rect x="42" y="616.6" width="916" height="2" fill="#D9D9D9"/>
<rect x="42" y="729.8" width="916" height="2" fill="#D9D9D9"/>
</g>
<rect x="41" y="226" width="918" height="618" rx="7" stroke="#57534E" stroke-width="2"/>
<defs>
<clipPath id="clip0_4_44">
<rect x="40" y="225" width="920" height="620" rx="8" fill="white"/>
</clipPath>
</defs>
</svg>
